<svg width="72" height="72" viewBox="0 0 72 72" fill="currentColor" xmlns="http://www.w3.org/2000/svg">
<path d="M46.1012 18.5996C47.5157 16.1773 50.6711 15.3274 52.7642 17.195C55.6309 19.753 57.897 22.9438 59.3664 26.5414C61.4802 31.7168 61.8273 37.4452 60.3537 42.8379C58.8801 48.2307 55.6683 52.9865 51.2163 56.3678C46.7643 59.7492 41.321 61.567 35.7306 61.5394C30.1402 61.5118 24.7151 59.6403 20.2968 56.2151C15.8784 52.79 12.7137 48.0027 11.2935 42.5956C9.87326 37.1885 10.2769 31.4639 12.4417 26.3096C13.9466 22.7267 16.2441 19.5585 19.136 17.0289C21.2474 15.182 24.3942 16.0631 25.7848 18.4993V18.4993C27.1753 20.9355 26.2355 23.9992 24.3884 26.1104C23.319 27.3326 22.4448 28.726 21.8075 30.2433C20.5086 33.3359 20.2664 36.7707 21.1185 40.0149C21.9707 43.2592 23.8695 46.1316 26.5205 48.1866C29.1715 50.2417 32.4266 51.3646 35.7808 51.3812C39.1351 51.3978 42.401 50.3071 45.0722 48.2783C47.7434 46.2495 49.6705 43.396 50.5547 40.1603C51.4388 36.9247 51.2306 33.4877 49.9623 30.3824C49.34 28.8588 48.4795 27.4568 47.4223 26.2241C45.5961 24.0949 44.6866 21.022 46.1012 18.5996V18.5996Z" fill="#DEC231"/>
<rect x="32.1108" width="8.52632" height="36.9474" rx="4.26316" fill="#DEC231"/>
</svg>
